<svg width="124" height="124" fill="none" xmlns="http://www.w3.org/2000/svg"><path fill-rule="evenodd" clip-rule="evenodd" d="M42.76.314a8.312 8.312 0 00-1.75.97c-1.46 1.113-1.923 2.288-3.042 7.717l-1.043 5.06-1.696.654c-.933.359-2.044.835-2.47 1.058-.427.223-.942.405-1.145.405-.203 0-2.252-1.247-4.554-2.77-4.46-2.952-5.676-3.465-7.591-3.203-1.7.233-2.46.745-5.393 3.635-2.914 2.87-3.597 3.867-3.834 5.598-.262 1.912.252 3.13 3.202 7.59 1.523 2.303 2.77 4.353 2.77 4.556 0 .203-.183.718-.406 1.144-.222.427-.699 1.539-1.058 2.472l-.653 1.696-4.91 1.015c-2.702.558-5.25 1.155-5.665 1.326-1.226.508-2.702 2.17-3.164 3.56-.343 1.034-.401 1.964-.333 5.31.094 4.574.316 5.316 2.046 6.835 1.27 1.115 1.82 1.299 6.875 2.3 2.465.488 4.652.936 4.862.996.21.06.567.68.796 1.378a30.5 30.5 0 001.09 2.724l.672 1.454-2.853 4.301c-1.569 2.366-2.978 4.765-3.13 5.331-.333 1.233-.162 2.994.411 4.24.604 1.312 5.56 6.23 6.885 6.831 1.311.595 3.508.654 4.78.127.495-.205 2.725-1.583 4.956-3.063l4.056-2.691 1.879.851c1.033.468 2.273.978 2.756 1.133l.876.282.913 4.657c1.073 5.473 1.51 6.648 2.937 7.904 1.524 1.343 2.45 1.522 7.383 1.433l4.253-.077 1.185-.733c1.967-1.217 2.42-2.23 3.596-8.028l1.024-5.05 2.286-.92c1.257-.507 2.477-1.146 2.71-1.421.969-1.144.17-3.112-1.263-3.112-.385 0-1.498.31-2.474.69-.976.38-2.279.875-2.896 1.1-.616.224-1.287.595-1.49.823-.214.24-.798 2.576-1.377 5.504-.553 2.8-1.116 5.443-1.252 5.876-.432 1.377-.878 1.515-4.885 1.515h-3.598l-.664-.666c-.593-.596-.774-1.229-1.714-5.998-.577-2.932-1.19-5.613-1.363-5.959-.244-.49-.813-.807-2.568-1.433-1.24-.443-3.126-1.227-4.192-1.743-1.262-.611-2.13-.891-2.488-.803-.302.075-2.679 1.551-5.281 3.28-3.802 2.527-4.898 3.145-5.578 3.145-.738 0-1.14-.285-3.16-2.24-2.332-2.257-2.993-3.148-2.993-4.034 0-.265 1.47-2.697 3.268-5.404 1.798-2.707 3.27-5.157 3.27-5.445.001-.288-.528-1.705-1.176-3.15-.648-1.444-1.317-3.063-1.486-3.596-.535-1.688-.929-2.251-1.752-2.51-.436-.137-3.081-.7-5.879-1.25-6.597-1.3-6.27-1.02-6.378-5.477-.08-3.293.095-4.348.82-4.949.177-.148 2.901-.798 6.053-1.445 3.662-.753 5.891-1.324 6.18-1.585.247-.224.743-1.295 1.1-2.38a34.934 34.934 0 011.586-3.843c.514-1.03.934-2.15.934-2.489 0-.383-1.083-2.238-2.87-4.912-3.47-5.197-3.757-5.727-3.554-6.564.212-.875 4.88-5.55 5.728-5.736.862-.189 1.377.09 6.566 3.558 2.673 1.786 4.527 2.87 4.91 2.87.34 0 1.459-.42 2.489-.935a34.899 34.899 0 013.842-1.585c1.084-.358 2.16-.86 2.39-1.115.278-.306.814-2.405 1.579-6.175.637-3.141 1.282-5.86 1.433-6.042.607-.732 1.653-.906 4.953-.826 4.522.11 4.217-.262 5.59 6.802.588 3.017 1.184 5.703 1.326 5.967.2.376 2.484 1.486 3.056 1.486.062 0 1.322.546 2.798 1.212 1.477.666 2.92 1.21 3.208 1.21.288-.002 2.737-1.474 5.443-3.272 2.706-1.798 5.137-3.27 5.402-3.27.886 0 1.777.662 4.033 2.995 1.954 2.02 2.239 2.423 2.239 3.161 0 .68-.618 1.776-3.144 5.58-1.728 2.603-3.204 4.98-3.278 5.283-.089.358.19 1.226.802 2.489a51.218 51.218 0 011.742 4.193c.626 1.755.944 2.325 1.433 2.569.345.172 3.026.786 5.957 1.364 4.767.939 5.4 1.12 5.996 1.714l.666.663v3.6c0 4.008-.138 4.454-1.515 4.886-.432.136-3.076.7-5.873 1.253-2.928.58-5.264 1.164-5.503 1.377-.228.203-.6.875-.826 1.491-.226.617-.774 2.071-1.218 3.232-.882 2.307-.848 2.95.197 3.681 1.43 1.002 2.506.148 3.767-2.989l.92-2.286 5.048-1.025c5.795-1.176 6.808-1.63 8.025-3.597l.733-1.185.077-4.254c.089-4.935-.091-5.862-1.433-7.386-1.256-1.428-2.43-1.864-7.902-2.938l-4.655-.913-.281-.877c-.156-.483-.665-1.723-1.133-2.757l-.851-1.88 2.69-4.057c1.48-2.231 2.857-4.462 3.062-4.958.526-1.272.468-3.47-.127-4.781-.6-1.324-5.517-6.283-6.828-6.887-1.246-.573-3.007-.744-4.24-.412-.565.153-2.964 1.562-5.329 3.132l-4.3 2.854-1.453-.673c-.8-.37-2.024-.861-2.723-1.09-.698-.229-1.318-.587-1.377-.796-.06-.21-.508-2.398-.996-4.864-1-5.057-1.185-5.607-2.3-6.877C53.42.27 52.73.073 47.947.01c-3.25-.042-4.46.029-5.186.303zm.342 25.77c-3.814.84-7.323 2.619-9.926 5.03-1.63 1.509-1.832 2.214-.957 3.326.859 1.093 1.852.891 3.994-.811 2.035-1.618 4.52-2.9 6.889-3.553 2.435-.672 7.08-.61 9.441.124 5.965 1.858 10.252 5.971 12.283 11.785.624 1.787.678 2.222.68 5.573.004 3.827-.096 4.343-1.476 7.674-.475 1.146-.526 1.497-.306 2.125.291.838.847 1.227 1.75 1.227.992 0 1.363-.253 1.892-1.29 2.182-4.278 2.79-10.192 1.548-15.054-1.942-7.604-7.68-13.525-15.286-15.772-2.974-.879-7.53-1.045-10.526-.384zm.969 10.198c-1.9.615-3.386 1.526-4.805 2.946-3.749 3.75-4.524 9.274-1.998 14.228.758 1.485 3.165 3.785 4.856 4.639 2.958 1.493 5.442 1.79 8.429 1.005 6.232-1.637 10.222-8.16 8.66-14.16-1.062-4.078-3.82-7.126-7.733-8.547-2.023-.735-5.332-.785-7.41-.111zm-16.66 3.402c-1.088 1.014-1.898 5.509-1.677 9.31.548 9.443 7.265 17.529 16.533 19.904 3.222.826 7.227.873 10.403.123 2.466-.582 6.657-2.515 7.83-3.61.97-.909 1.037-1.978.175-2.84-.804-.804-1.722-.755-3.173.168-3.387 2.155-6.543 2.984-10.727 2.819-2.23-.089-3.233-.25-4.763-.77-5.757-1.956-9.916-6.286-11.783-12.268-.72-2.307-.787-6.994-.134-9.358.226-.82.41-1.809.41-2.2 0-1.498-1.98-2.316-3.094-1.278zm17.562.369c-2.122.779-4.15 2.839-4.906 4.98-.512 1.453-.453 3.825.136 5.4 1.323 3.536 5.259 5.74 8.907 4.987 1.821-.376 2.88-.937 4.138-2.196 5.046-5.048 1.42-13.6-5.734-13.524-.895.01-2.038.168-2.541.353zm43.297 20.44c-1.14.518-2.145 1.623-2.5 2.75-.137.436-.487 2.013-.778 3.504l-.529 2.71-1.331.54c-.732.298-1.459.541-1.614.541-.156 0-1.26-.656-2.453-1.458-2.977-2-3.539-2.257-4.928-2.257-1.771 0-2.317.296-4.535 2.462-2.296 2.242-2.76 3.048-2.76 4.793 0 1.429.31 2.102 2.395 5.205l1.452 2.162-.373.867c-.642 1.493-1.294 3.47-1.294 3.921 0 .608.97 1.626 1.718 1.8.783.184 2.028-.783 2.27-1.763.09-.367.538-1.499.995-2.515.457-1.016.83-2.162.83-2.546 0-.472-.665-1.695-2.058-3.782-1.133-1.696-2.06-3.225-2.06-3.398 0-.4 2.94-3.329 3.342-3.329.165 0 1.688.927 3.383 2.06 3.506 2.342 3.8 2.41 5.993 1.371.8-.377 2.033-.88 2.741-1.114 1.6-.531 1.75-.833 2.606-5.225.35-1.8.748-3.407.885-3.574.163-.2.964-.303 2.368-.303 1.403 0 2.204.102 2.368.303.136.167.534 1.775.885 3.574.856 4.395 1.006 4.695 2.605 5.219a23.97 23.97 0 012.674 1.115c2.097 1.05 2.453.971 5.811-1.28 1.619-1.084 3.151-2.026 3.404-2.092.33-.087.904.318 2.016 1.42.855.847 1.554 1.682 1.554 1.855 0 .173-.927 1.702-2.059 3.398-2.31 3.46-2.432 3.937-1.484 5.821.315.629.824 1.835 1.131 2.681.68 1.88.846 1.97 5.319 2.841 1.799.35 3.407.75 3.573.885.2.164.303.966.303 2.37 0 1.403-.103 2.205-.303 2.368-.166.136-1.774.535-3.573.885-4.472.872-4.644.964-5.332 2.843a32.675 32.675 0 01-1.127 2.679c-.936 1.891-.814 2.366 1.493 5.821 1.132 1.696 2.059 3.226 2.059 3.399 0 .399-2.94 3.329-3.341 3.329-.166 0-1.688-.927-3.384-2.06-3.454-2.308-3.929-2.43-5.819-1.494a32.66 32.66 0 01-2.679 1.128c-1.878.688-1.97.86-2.841 5.333-.35 1.8-.749 3.408-.885 3.575-.164.2-.965.303-2.368.303-1.404 0-2.205-.103-2.368-.303-.137-.167-.535-1.775-.885-3.575-.872-4.474-.96-4.64-2.84-5.321-.846-.306-2.052-.815-2.68-1.131-1.884-.948-2.36-.826-5.82 1.485-1.695 1.133-3.224 2.06-3.397 2.06-.172 0-1.007-.7-1.854-1.555-1.102-1.112-1.506-1.687-1.42-2.016.066-.254 1.008-1.786 2.093-3.406 2.25-3.359 2.327-3.715 1.278-5.813a23.988 23.988 0 01-1.114-2.674c-.524-1.6-.824-1.75-5.217-2.607-1.8-.35-3.41-.752-3.582-.892-.222-.182-.292-.885-.242-2.458l.069-2.203.902-.424c1.67-.785 2.053-2.196.909-3.34-.602-.603-1.746-.61-3.022-.021-2.166 1-2.788 2.372-2.78 6.137.005 3.098.36 4.243 1.649 5.328.915.77 1.56.983 5.04 1.662l2.697.526.637 1.476.637 1.475-1.546 2.323c-2.112 3.172-2.337 3.665-2.337 5.101 0 1.772.483 2.592 2.903 4.925 2.307 2.226 2.92 2.504 4.998 2.269.84-.094 1.732-.55 3.893-1.99l2.805-1.869 1.51.643 1.512.642.529 2.712c.681 3.495.893 4.139 1.664 5.055 1.092 1.299 2.224 1.645 5.379 1.645 3.154 0 4.286-.346 5.379-1.645.77-.916.982-1.56 1.664-5.055l.528-2.712 1.512-.642 1.511-.643 2.831 1.886c2.572 1.714 2.96 1.896 4.239 1.988 1.938.141 2.729-.294 5.197-2.855 2.225-2.308 2.503-2.922 2.269-5.001-.095-.839-.551-1.731-1.991-3.894l-1.867-2.805.642-1.512.642-1.511 2.712-.53c3.493-.681 4.137-.893 5.053-1.664 1.298-1.093 1.644-2.225 1.644-5.38 0-3.157-.346-4.289-1.644-5.382-.916-.77-1.56-.982-5.053-1.664l-2.712-.529-.642-1.512-.642-1.511 1.867-2.806c1.44-2.162 1.896-3.054 1.991-3.894.234-2.079-.044-2.692-2.269-5-2.332-2.42-3.152-2.904-4.923-2.904-1.436 0-1.929.226-5.1 2.338l-2.322 1.546-1.475-.636-1.475-.637-.526-2.7c-.678-3.48-.891-4.126-1.661-5.04-1.093-1.3-2.225-1.645-5.38-1.645-2.185 0-2.996.095-3.764.444zm.567 21.095c-1.951.624-3.28 1.463-4.712 2.98-2.003 2.118-2.991 4.582-2.991 7.456 0 7.271 7.168 12.577 14.085 10.426 1.954-.608 3.862-1.861 4.145-2.724.282-.863-.21-1.898-1.11-2.329-.626-.3-.823-.255-2.497.572-3.387 1.674-6.292 1.331-8.644-1.022-5.303-5.306.38-14.096 7.413-11.464 2.375.889 4.534 3.771 4.534 6.054 0 2.07 1.952 3.16 3.281 1.831.716-.716.783-1.972.222-4.127-1.538-5.908-7.97-9.494-13.726-7.653z" fill="url(#paint0_linear_19_25)"/><defs><linearGradient id="paint0_linear_19_25" x1="62" y1="0" x2="62" y2="124" gradientUnits="userSpaceOnUse"><stop stop-color="#5072EE"/><stop offset="1" stop-color="#3A60EA"/></linearGradient></defs></svg>