<svg width="112" height="134" fill="none" xmlns="http://www.w3.org/2000/svg"><path fill-rule="evenodd" clip-rule="evenodd" d="M54.877.35c-.242.242-.349 1.755-.349 4.928 0 4.851.17 5.494 1.453 5.494 1.282 0 1.452-.643 1.452-5.494C57.433.369 57.33 0 55.98 0c-.416 0-.912.157-1.104.35zM30.785 5.867c-.2.199-.362.656-.362 1.016 0 .624 3.144 7.345 3.815 8.156.709.856 2.6.052 2.56-1.09-.008-.227-.89-2.181-1.96-4.343-1.805-3.645-2.01-3.936-2.819-4.016-.48-.047-1.035.077-1.234.277zm48.015.318c-.71 1.088-3.651 7.422-3.651 7.866 0 .655 1.05 1.433 1.791 1.328.54-.077 1.044-.806 2.48-3.59 1.97-3.814 2.387-5.146 1.825-5.825-.554-.67-1.945-.543-2.445.221zM51.48 15.61c-6.063.93-10.422 2.285-14.94 4.644-10.892 5.688-18.695 16.003-21.555 28.494-.762 3.328-1.05 10.682-.556 14.179 1.685 11.923 8.281 22.605 18.08 29.283 3.45 2.351 4.934 3.891 5.578 5.786l.434 1.276-.927.002c-5.043.009-8.07 5.668-5.208 9.738.873 1.241.882 1.287.349 1.771-.93.844-1.527 2.856-1.379 4.649.266 3.21 2.597 5.274 6.309 5.586l2.034.171.445 1.344c.654 1.974 2.578 4.761 4.427 6.413 3.211 2.869 7.16 4.387 11.41 4.387 4.251 0 8.2-1.518 11.412-4.387 1.848-1.652 3.773-4.439 4.427-6.413l.445-1.344 2.034-.171c3.711-.312 6.043-2.376 6.308-5.586.149-1.793-.448-3.805-1.379-4.649-.533-.484-.524-.53.35-1.771 2.861-4.07-.166-9.73-5.21-9.738l-.926-.002.434-1.276c.646-1.898 2.132-3.438 5.582-5.78 8.968-6.09 15.256-15.521 17.616-26.423.718-3.317.894-11.135.329-14.587-.78-4.758-1.328-5.786-2.876-5.397-1.023.258-1.167.939-.662 3.129 1.276 5.532 1.176 12.28-.269 18.042-2.324 9.27-8.057 17.394-16.16 22.898-1.697 1.153-3.683 2.763-4.413 3.576-1.265 1.41-2.52 4.023-2.52 5.247 0 .56-.286.571-14.521.571-14.236 0-14.522-.011-14.522-.571 0-1.218-1.252-3.834-2.503-5.228-.721-.804-2.773-2.475-4.559-3.713-8.697-6.026-14.306-14.502-16.502-24.93-.881-4.187-.879-10.782.005-14.984 2.127-10.104 7.801-18.729 16.095-24.462 2.81-1.943 8.1-4.497 10.95-5.287 5.403-1.499 12.189-1.89 17.447-1.005 5.577.939 11.999 3.636 16.398 6.887 2.433 1.799 6.914 6.243 8.218 8.15 1.058 1.549 1.84 2.086 2.658 1.826.575-.183 1.049-1.154.91-1.864-.167-.857-2.56-3.785-5.382-6.589-5.766-5.728-12.786-9.523-20.733-11.209-2.746-.582-10.858-1.01-12.982-.683zm-39.934 5.642c-1.099 1.102-.771 1.608 3.05 4.715 3.592 2.92 3.775 3.017 4.647 2.444.498-.327.726-.742.726-1.323 0-.733-.468-1.217-3.504-3.632-1.927-1.533-3.692-2.786-3.92-2.786-.23 0-.68.262-.999.582zM95.52 23.45c-1.906 1.53-3.527 3.018-3.603 3.307-.173.663.221 1.382.98 1.79.723.387 1.101.159 4.952-2.987 2.584-2.111 3.149-2.732 3.149-3.459 0-.422-1.118-1.431-1.587-1.431-.233 0-1.984 1.25-3.89 2.78zm-54.05 5.06c-.165.31-.3 2.21-.3 4.222v3.658h-1.842c-3.719 0-5.71 2-5.71 5.739v1.83h-3.72c-4.123 0-4.774.219-4.774 1.601 0 1.383.65 1.602 4.775 1.602h3.72v3.493h-2.133c-2.305 0-3.095.429-3.095 1.68 0 1.02 1.074 1.522 3.26 1.522h1.968v3.494h-3.886c-2.764 0-3.966.105-4.165.364-.662.857-.648 1.423.054 2.127.677.678.876.711 4.353.711h3.644v3.494H31.46c-2.425 0-3.163.417-3.013 1.704.12 1.029 1.152 1.488 3.356 1.493l1.815.005v3.477l-3.986.081c-3.92.08-3.99.093-4.345.806-.29.585-.285.838.027 1.31.35.53.752.593 4.315.666l3.928.08.104 2.302c.116 2.545.547 3.416 2.277 4.597.781.532 1.36.655 3.096.655h2.135v3.885c0 3.534.053 3.933.59 4.42.466.423.754.477 1.379.257l.79-.278.145-4.07.145-4.069 1.815-.087 1.816-.086v2.285c0 2.494.241 2.983 1.475 2.983 1.135 0 1.391-.504 1.488-2.924l.086-2.17 1.815-.088 1.816-.086v3.899c0 3.407.067 3.96.53 4.38.598.543 1.151.604 1.793.198.34-.215.467-1.153.58-4.29l.146-4.014h3.485l.087 2.17c.096 2.42.353 2.925 1.488 2.925 1.233 0 1.475-.489 1.475-2.983v-2.285l1.815.087 1.815.086.145 4.014c.114 3.137.24 4.075.581 4.29.67.424 1.315.337 1.843-.248.396-.439.48-1.207.48-4.367v-3.834h2.136c1.736 0 2.314-.123 3.095-.655 1.731-1.181 2.162-2.052 2.278-4.605l.104-2.31h3.883c3.822 0 3.891-.011 4.36-.727.44-.675.44-.782 0-1.456-.469-.717-.536-.728-4.39-.728h-3.914V67.25l1.815-.004c2.203-.006 3.235-.465 3.355-1.495.15-1.286-.587-1.703-3.013-1.703h-2.157v-3.494l3.412-.004c1.877-.002 3.717-.085 4.088-.185.957-.257 1.354-1.444.778-2.325-.437-.667-.57-.688-4.364-.688h-3.914v-3.494h1.968c2.217 0 3.26-.502 3.26-1.572 0-1.189-.852-1.63-3.146-1.63h-2.082v-3.494h3.775c3.388 0 3.835-.06 4.356-.583.32-.32.581-.778.581-1.019 0-.24-.261-.698-.58-1.019-.521-.521-.969-.582-4.326-.582h-3.745l-.103-2.256c-.083-1.81-.242-2.45-.801-3.236-.954-1.341-2.66-2.063-4.893-2.07l-1.816-.007v-3.872c0-4.159-.13-4.57-1.452-4.57-1.32 0-1.452.412-1.452 4.57v3.872h-3.775v-2.138c0-2.228-.43-3.102-1.527-3.102-1.004 0-1.378.835-1.378 3.077v2.163h-3.775v-3.872c0-4.159-.131-4.57-1.452-4.57-1.322 0-1.453.412-1.453 4.57v3.872h-3.775v-2.163c0-2.274-.373-3.077-1.428-3.077-1.036 0-1.476.94-1.476 3.153v2.087h-3.776v-3.872c0-2.623-.112-3.984-.348-4.221-.553-.553-1.915-.425-2.256.214zm49.545 9.777c-.66.662-.593 1.337.32 3.202.55 1.126 1.006 1.673 1.497 1.796 1.772.446 2.266-1.493.978-3.838-.879-1.602-1.922-2.035-2.795-1.16zm-53.693 1.62c-.476.278-.508 1.488-.508 18.869 0 17.622.026 18.597.53 19.054.483.437 2.2.481 18.688.481 17.221 0 18.181-.027 18.637-.532.437-.483.48-2.228.48-19.058 0-18.018-.014-18.534-.56-18.827-.769-.412-36.56-.4-37.267.013zM.567 43.435c-.456.458-.447 1.826.015 2.21.423.352 7.657 2.099 8.692 2.099.386 0 .86-.157 1.052-.35.456-.457.447-1.828-.015-2.2-.426-.342-7.728-2.108-8.718-2.108-.372 0-.834.157-1.026.35zm40.08 0c-.263.263-.35 4.119-.35 15.565 0 14.745.018 15.225.562 15.517.366.196 5.663.301 15.192.301 12.177 0 14.725-.07 15.194-.413.546-.4.564-.9.564-15.385 0-12.261-.072-15.058-.398-15.453-.362-.436-1.801-.481-15.408-.481-11.286 0-15.095.087-15.357.35zm64.998.563c-1.997.486-3.794 1.019-3.994 1.185-.462.385-.472 1.754-.015 2.212.524.525 1.457.426 5.745-.609 3.664-.884 3.934-.997 4.2-1.756.391-1.115-.084-1.784-1.32-1.856-.543-.032-2.62.34-4.616.825zm-62.246 2.19c-.109.109-.197 5.874-.197 12.813v12.615h25.564l-.076-12.737-.076-12.736-12.51-.076c-6.88-.042-12.597.013-12.706.121zm9.033 5.122c-.256.2-1.73 3.43-3.277 7.176-2.32 5.622-2.76 6.925-2.52 7.456.162.354.538.708.837.786 1.075.282 1.707-.27 2.531-2.215l.815-1.922h5.092l.66 1.768c.38 1.02.949 1.96 1.342 2.217.617.406.752.403 1.409-.028.436-.287.726-.752.726-1.166 0-.836-5.095-13.208-5.735-13.926-.534-.6-1.231-.654-1.88-.146zm10.39.283c-.378.54-.452 1.762-.452 7.424 0 6.444.03 6.805.596 7.373.41.412.794.539 1.234.408 1.303-.388 1.365-.744 1.365-7.837 0-7.306-.141-8.015-1.598-8.015-.387 0-.892.286-1.145.647zm-9.97 5.954a48.91 48.91 0 01-.503 1.332c-.176.436-.035.51.972.51h1.178l-.448-1.092c-.634-1.545-.861-1.687-1.2-.75zM4.72 66.96C.414 67.956.255 68.02.037 68.894c-.219.872.575 1.848 1.503 1.848.357 0 2.395-.395 4.529-.879 4.556-1.032 5.253-1.557 4.153-3.131-.57-.815-1.083-.794-5.502.228zm96.986-.162c-.528.807-.348 1.776.4 2.154.985.498 8.166 1.858 8.871 1.68 1.458-.366 1.325-2.284-.192-2.773-1.141-.368-7.647-1.775-8.207-1.775-.223 0-.616.322-.872.714zM14.189 87.991c-2.104 1.612-3.588 2.961-3.695 3.36-.221.823.586 1.808 1.481 1.808.347 0 1.993-1.055 3.658-2.343 3.214-2.486 4.044-3.297 4.044-3.949 0-.524-1.043-1.569-1.567-1.569-.223 0-1.988 1.212-3.921 2.693zm78.658-2.093c-1.05 1.054-.627 1.694 3.017 4.56 3.545 2.787 4.367 3.128 5.233 2.168.999-1.106.732-1.448-3.976-5.106-1.573-1.222-3.043-2.222-3.267-2.222-.225 0-.678.27-1.007.6zm-57.263 17.149c-1.735 1.368-1.65 3.868.17 4.98.876.536 1.697.559 20.169.56 21.412.001 20.604.074 21.441-1.935.53-1.273.141-2.716-.968-3.591-.73-.575-1.134-.586-20.415-.586-19.118 0-19.692.016-20.397.572zm0 9.316c-1.735 1.368-1.65 3.868.17 4.98.876.536 1.697.559 20.169.56 21.412.001 20.604.074 21.441-1.936.53-1.272.141-2.715-.968-3.59-.73-.575-1.134-.587-20.415-.587-19.118 0-19.692.016-20.397.573zm7.327 8.979c0 .685 2.242 3.886 3.621 5.17 1.992 1.854 4.26 2.977 7.176 3.553 2.048.405 2.498.405 4.546 0 2.915-.576 5.183-1.699 7.175-3.553 1.38-1.284 3.62-4.485 3.62-5.17 0-.13-5.88-.236-13.068-.236s-13.07.106-13.07.236z" fill="url(#paint0_linear_19_35)"/><defs><linearGradient id="paint0_linear_19_35" x1="56" y1="0" x2="56" y2="133.333" gradientUnits="userSpaceOnUse"><stop stop-color="#5072EE"/><stop offset="1" stop-color="#3A60EA"/></linearGradient></defs></svg>