<svg width="112" height="110" fill="none" xmlns="http://www.w3.org/2000/svg"><path fill-rule="evenodd" clip-rule="evenodd" d="M61.771.221c-6.138.903-12.29 4.035-16.384 8.339-.783.823-1.732 1.89-2.108 2.368l-.684.872-.949-.68c-9.007-6.444-21.512-3.147-26.27 6.928-1.276 2.7-1.543 4.043-1.497 7.515.023 1.681.071 3.338.108 3.682.063.59-.013.651-1.359 1.107-3.13 1.061-6.202 3.158-8.27 5.645-8.443 10.156-4.08 25.46 8.452 29.64 2.786.93 5.54 1.128 14.506 1.048l7.366-.066.594-.594c.767-.768.806-1.898.093-2.657l-.502-.534-9.205-.095c-7.569-.078-9.447-.158-10.56-.45A14.945 14.945 0 015.41 54.36c-1.168-2.39-1.584-4.434-1.44-7.068.218-3.97 1.547-6.908 4.409-9.752 2.17-2.155 4.486-3.393 7.436-3.973 1.35-.266 2.029-.517 2.424-.898.642-.618.626-1.053-.144-3.937-1.208-4.528.145-9.51 3.497-12.877 5.301-5.325 13.497-5.514 19.094-.442 1.246 1.13 1.555 1.305 2.3 1.305.945 0 .767.175 3.265-3.193 3.527-4.753 8.87-8.064 14.975-9.279 1.912-.38 7.185-.385 8.954-.009 6.332 1.348 11.909 4.916 15.457 9.89 1.442 2.022 3.125 5.65 3.801 8.195.492 1.851.58 2.678.637 5.97l.067 3.822.668.6c.607.545.826.602 2.359.605 7.793.017 14.14 6.044 14.621 13.882.357 5.824-3.027 11.53-8.342 14.066-2.885 1.377-2.908 1.379-16.959 1.473l-12.805.085-.484.515c-.694.739-.654 1.963.09 2.706l.572.573 10.97.065c6.033.036 12.113-.032 13.513-.151 7.853-.668 13.983-5.424 16.49-12.794.285-.838.58-2.045.655-2.681.075-.637.22-1.21.323-1.273.103-.064.188-1 .188-2.082 0-1.255-.079-1.917-.218-1.83-.126.077-.219-.127-.219-.483 0-1.82-1.58-5.823-3.188-8.077-3.034-4.25-7.403-6.951-12.514-7.733l-1.707-.262-.123-2.424C93.37 13.887 83.997 3.091 71.074.456 68.64-.04 64.297-.15 61.771.221zM26.895 31.744c-2.18.778-3.724 2.199-4.71 4.338-.396.858-.487 1.444-.486 3.13 0 1.906.057 2.183.696 3.407.87 1.669 2.533 3.189 4.172 3.815 1.504.575 3.889.647 5.176.158l1.201-.46c.23-.088 1.51 1.302 4.313 4.688l3.986 4.813v20.705h-5.904c-6.27 0-7.115.117-7.619 1.059-.407.76-.278 1.757.3 2.335l.536.537h15.282l.614-.528.612-.526.067-11.758c.036-6.466.009-12.15-.062-12.63-.108-.736-.827-1.713-4.57-6.204l-4.442-5.33.558-1.22c.737-1.61.76-3.917.06-5.744-.636-1.656-2.154-3.308-3.817-4.156-1.728-.88-4.202-1.058-5.963-.43zm47.296-.065c-2.17.695-4.355 2.756-5.002 4.715l-.281.852H50.177l-.536.536-.536.536v51.778H9.795v-6.079l1.016-.388c2.361-.902 4.472-3.739 4.789-6.438.274-2.33-.933-5.318-2.715-6.72-1.795-1.413-2.57-1.668-5.055-1.668-2.198 0-2.351.031-3.675.75-1.603.868-2.698 2.035-3.501 3.727-.485 1.021-.57 1.496-.567 3.167.004 1.7.087 2.135.612 3.218.789 1.625 2.253 3.072 3.87 3.825l1.29.6.003 4.297.002 4.296.565.672.566.672H29.31c24.797 0 23.055.11 23.497-1.48.149-.538.226-9.37.226-26.091l.002-25.279h15.861l.488 1.176c.646 1.56 2.199 3.103 3.945 3.922 3.693 1.731 8.27.062 10.18-3.714.58-1.145.645-1.485.645-3.35 0-1.791-.079-2.243-.582-3.318-.748-1.594-2.272-3.114-3.847-3.835-1.532-.702-4.002-.87-5.535-.38zM27.81 35.59c-3.417 1.526-2.81 6.738.866 7.428.899.168 2.4-.187 2.792-.66.15-.182.582-.655.959-1.052 2.631-2.767-1.04-7.312-4.616-5.716zm46.79.143c-.909.48-1.795 1.69-2.013 2.75-.361 1.754 1.074 3.939 2.913 4.434 3.644.98 6.386-3.42 3.897-6.254-1.236-1.408-3.178-1.785-4.797-.93zM60.427 45.4c-2.346.875-4.225 2.63-4.982 4.653-.612 1.636-.6 4.011.028 5.693.604 1.617 2.654 3.738 4.169 4.314l1.037.395v8.93c0 9.502.06 10.113 1.06 10.648.307.164 7.169.236 22.689.236 22.048 0 22.253-.005 22.724-.443 1.028-.959.83-2.478-.406-3.106-.7-.355-2.176-.382-21.444-.382H64.61V60.636l1.384-.66c1.608-.768 3.22-2.369 3.927-3.901.389-.841.476-1.43.476-3.214 0-1.967-.06-2.299-.608-3.338-.869-1.65-1.912-2.713-3.483-3.552-1.19-.636-1.611-.74-3.225-.8-1.193-.044-2.141.037-2.654.229zM.047 47.947c0 1.141.036 1.608.081 1.038.045-.571.045-1.505 0-2.075-.045-.57-.082-.104-.082 1.037zm60.813 1.535c-.99.522-1.63 1.395-1.896 2.582-.74 3.291 2.617 5.804 5.69 4.26 1.742-.876 2.472-3.636 1.434-5.424-.997-1.719-3.416-2.375-5.228-1.418zM7.034 72.624c-2.331.526-3.722 3.005-2.903 5.173.284.754 1.203 1.75 1.995 2.163.75.392 2.38.397 3.304.01.878-.366 1.77-1.397 2.116-2.442.888-2.692-1.726-5.534-4.512-4.904zm55.174 13.692c-1.356.51-1.77 2.248-.774 3.244l.535.536h17.24l3.745 6.55c2.058 3.602 3.955 6.697 4.214 6.879.4.28 1.744.329 8.955.329h8.485l.639-.638c.8-.8.84-1.723.111-2.571l-.527-.613-7.75-.062-7.749-.062-3.571-6.267c-1.964-3.447-3.783-6.514-4.043-6.817l-.472-.55-9.356-.04c-5.145-.023-9.502.014-9.682.082zm.95 7.927c-2.306.484-4.475 2.222-5.49 4.399l-.592 1.272-24.096.06-24.096.058-.528.613c-.728.848-.688 1.771.112 2.571l.638.638 23.985.004 23.985.004.518 1.197c.75 1.731 1.985 3.024 3.693 3.865 1.321.65 1.642.718 3.428.718 1.684 0 2.152-.086 3.23-.591 1.615-.757 3.239-2.421 3.886-3.984l.503-1.213h3.424c3.409 0 3.427-.002 4-.575.75-.749.769-1.797.05-2.634l-.527-.613-3.474-.069-3.473-.069-.613-1.29c-1.495-3.148-5.246-5.058-8.562-4.361zm.143 4.063c-1.569.68-2.447 1.949-2.468 3.567-.043 3.31 3.853 5.182 6.304 3.03 1.016-.892 1.404-1.687 1.404-2.88 0-1.781-.72-2.926-2.293-3.652-1.056-.488-1.929-.507-2.947-.065z" fill="url(#paint0_linear_19_40)"/><defs><linearGradient id="paint0_linear_19_40" x1="56" y1="0" x2="56" y2="109.642" gradientUnits="userSpaceOnUse"><stop stop-color="#5072EE"/><stop offset="1" stop-color="#3A60EA"/></linearGradient></defs></svg>