<svg width="100" height="100" fill="none" xmlns="http://www.w3.org/2000/svg"><path fill-rule="evenodd" clip-rule="evenodd" d="M6.288.162C4.99.47 3.096 1.584 2.174 2.584c-.469.508-1.15 1.552-1.513 2.318L0 6.297v74.107l.78 1.577c.939 1.9 2.148 3.083 4.088 4.002l1.395.66 30.225.056 30.226.056.515-.516c.682-.681.683-1.639.004-2.318l-.513-.512H37.142c-22.613 0-29.78-.06-30.437-.254-1.147-.339-2.876-2.067-3.215-3.214-.195-.658-.254-8.537-.254-33.756V13.288h93.532l-.054 33.234-.054 33.235-.47.893c-.648 1.232-.62 2.193.08 2.744 1.153.906 2.178.349 3.122-1.696l.608-1.315V6.297l-.66-1.395c-.92-1.94-2.104-3.148-4.004-4.087L93.76.035 50.429.004C24.748-.016 6.768.05 6.287.163zm.288 3.381c-1.024.323-2.772 2.132-3.086 3.195-.14.473-.254 1.388-.254 2.035v1.176h66.806V3.27l-31.368.02c-22.231.016-31.58.09-32.098.252zM73.382 6.61v3.339h23.382V8.773c0-.647-.114-1.562-.254-2.035-.339-1.146-2.068-2.875-3.215-3.214-.62-.183-3.516-.253-10.386-.253h-9.527V6.61zm-1.158 17.207c-.621.622-.669 1.544-.114 2.23.383.473.535.497 3.859.597l3.46.105-11.912 12.625a11680.133 11680.133 0 01-12.209 12.932c-.26.267-.785-.179-4.12-3.496-3.452-3.432-3.892-3.8-4.532-3.8-.648 0-1.172.461-6.101 5.373-2.966 2.956-5.447 5.587-5.514 5.847-.29 1.145.938 2.36 2.052 2.03.267-.08 2.527-2.175 5.023-4.658l4.538-4.514 3.708 3.684c2.24 2.225 3.93 3.739 4.268 3.823.329.081.776.024 1.088-.141.291-.154 6.24-6.332 13.22-13.73l12.69-13.451.105 3.296c.1 3.15.126 3.313.597 3.694.686.555 1.609.508 2.23-.114l.513-.512V24.33l-.512-.513-.513-.512H72.737l-.513.512zM45.916 28.64c-5.238.88-10.312 3.572-13.987 7.418-9.454 9.897-9.273 25.314.41 34.946 4.168 4.148 9.112 6.52 15.015 7.207 6.167.716 12.864-1.178 17.805-5.036l1.275-.996 2.236 2.242 2.235 2.241-.454 1.34c-.572 1.688-.479 3.417.271 5.02.348.742 2.604 3.553 6.711 8.36 5.976 6.993 6.235 7.264 7.588 7.93 1.21.595 1.615.689 2.975.689 1.35 0 1.768-.095 2.934-.67 1.73-.85 4.353-3.476 5.097-5.1 1.06-2.315.858-4.709-.566-6.726-.96-1.36-14.342-12.741-15.816-13.452-1.451-.7-3.724-.77-5.294-.165l-1.014.391-2.252-2.243-2.25-2.243 1.128-1.46c4.541-5.876 6.144-13.88 4.253-21.244-.45-1.75-.917-2.288-1.99-2.288-.506 0-.814.154-1.142.572-.498.632-.49.855.12 3.394.28 1.16.375 2.374.369 4.695-.007 2.685-.085 3.42-.547 5.156-1.707 6.424-6.017 11.604-11.981 14.398-2.955 1.384-5.297 1.892-8.836 1.915-4.093.026-6.511-.523-10.021-2.275-5.585-2.787-9.764-8.056-11.334-14.29-.65-2.574-.64-7.473.018-10.095a22.034 22.034 0 0116.04-16.032c2.501-.625 7.303-.67 9.785-.092a22.65 22.65 0 017.373 3.216c2.306 1.55 2.96 1.69 3.725.8.968-1.124.542-1.982-1.741-3.507-5.376-3.592-11.971-5.052-18.138-4.016zm29.401 48.502c-1.462.663-2.223 2.398-1.747 3.986.343 1.142 12.11 14.938 13.09 15.348 1.644.686 3.18.11 5.06-1.899.685-.73 1.358-1.675 1.498-2.098.316-.959.153-2.288-.369-2.999-.581-.792-13.591-11.866-14.5-12.342-.974-.51-1.901-.51-3.032.004z" fill="url(#paint0_linear_19_20)"/><defs><linearGradient id="paint0_linear_19_20" x1="50" y1="0" x2="50" y2="100" gradientUnits="userSpaceOnUse"><stop stop-color="#5072EE"/><stop offset="1" stop-color="#3A60EA"/></linearGradient></defs></svg>