<svg width="14" height="14" fill="none" xmlns="http://www.w3.org/2000/svg"><path d="M.564 6.919c0-2.392 0-3.588.744-4.331.743-.743 1.939-.743 4.33-.743h2.537c2.392 0 3.588 0 4.331.743.743.743.743 1.939.743 4.33v1.27c0 2.39 0 3.587-.743 4.33-.743.742-1.939.743-4.33.743H5.637c-2.391 0-3.587 0-4.33-.743-.743-.744-.744-1.94-.744-4.33v-1.27z" stroke="#888" stroke-width=".951"/><path d="M3.736 1.845V.893m6.342.952V.893M.882 5.016h12.05" stroke="#888" stroke-width=".951" stroke-linecap="round"/><path d="M10.712 10.09a.634.634 0 11-1.268 0 .634.634 0 011.268 0zm0-2.537a.634.634 0 11-1.268 0 .634.634 0 011.268 0zm-3.17 2.537a.634.634 0 11-1.269 0 .634.634 0 011.268 0zm0-2.537a.634.634 0 11-1.27 0 .634.634 0 011.27 0zM4.37 10.09a.634.634 0 11-1.268 0 .634.634 0 011.268 0zm0-2.537a.634.634 0 11-1.269 0 .634.634 0 011.269 0z" fill="#888"/></svg>