<svg width="15" height="15" fill="none" xmlns="http://www.w3.org/2000/svg"><g clip-path="url(#clip0_12_1362)"><path d="M12.698 5.128a1.395 1.395 0 011.391 1.29l.004.105v6.28a1.395 1.395 0 01-1.29 1.391l-.105.004H9.907a1.396 1.396 0 01-1.392-1.291l-.003-.105V6.523a1.395 1.395 0 011.29-1.392l.105-.003h2.79zm-2.093-2.79A1.395 1.395 0 0112 3.732H9.21a2.093 2.093 0 00-2.094 2.093V13.5H1.535A1.395 1.395 0 01.14 12.105V3.733a1.395 1.395 0 011.395-1.396h9.07z" fill="#888"/></g><defs><clipPath id="clip0_12_1362"><path fill="#fff" transform="translate(.14 .942)" d="M0 0h13.954v13.954H0z"/></clipPath></defs></svg>