<svg width="175" height="176" fill="none" xmlns="http://www.w3.org/2000/svg"><path d="M87.512 4.314c0-1.927-1.563-3.496-3.488-3.419A87.21 87.21 0 0054.47 168.743c1.783.73 3.788-.211 4.446-2.022l11.319-31.146c.658-1.811-.284-3.801-2.04-4.591a47.09 47.09 0 01-27.064-51.115A47.093 47.093 0 0184.026 41.07c1.922-.143 3.486-1.69 3.486-3.617V4.313z" fill="#3A60EA"/><path d="M58.894 166.713c-.658 1.81.274 3.819 2.109 4.405a87.207 87.207 0 0097.956-33.076A87.21 87.21 0 0090.984.895c-1.924-.077-3.487 1.492-3.486 3.419l.005 33.14c0 1.926 1.565 3.474 3.486 3.616a47.096 47.096 0 0142.009 34.768 47.09 47.09 0 01-41.372 59.11 47.083 47.083 0 01-16.892-1.587c-1.855-.522-3.853.398-4.512 2.209l-11.328 31.143z" fill="#A3B5F5"/></svg>