<svg width="171" height="43" fill="none" xmlns="http://www.w3.org/2000/svg"><path d="M61.895 14.67v6.053h6.6v1.949h-6.6v6.235h7.379v1.949H59.53V12.72h9.743v1.948h-7.379zm17.867 16.186l-3.377-5.3-3.248 5.3H70.67l4.599-7.067-4.6-7.171h2.677l3.377 5.274 3.222-5.274h2.468l-4.572 7.041 4.599 7.197h-2.677zm7.367-12.29v8.393c0 .692.147 1.186.441 1.48.295.278.806.416 1.533.416h1.74v2h-2.13c-1.316 0-2.303-.302-2.962-.909-.658-.606-.987-1.602-.987-2.987v-8.392H82.92v-1.949h1.844v-3.585h2.365v3.585h3.715v1.949h-3.715zm19.051 4.625c0 .45-.026.927-.078 1.43h-11.38c.086 1.402.563 2.502 1.429 3.299.883.78 1.948 1.17 3.196 1.17 1.021 0 1.87-.235 2.546-.702a3.837 3.837 0 001.455-1.923h2.546a6.18 6.18 0 01-2.287 3.352c-1.143.848-2.563 1.273-4.26 1.273-1.352 0-2.564-.303-3.638-.91-1.056-.606-1.888-1.463-2.494-2.572-.606-1.126-.91-2.425-.91-3.897s.295-2.763.884-3.871c.589-1.109 1.412-1.957 2.468-2.546 1.074-.607 2.304-.91 3.69-.91 1.35 0 2.546.295 3.585.884a6.007 6.007 0 012.39 2.442c.572 1.022.858 2.182.858 3.481zm-2.443-.493c0-.901-.199-1.672-.597-2.313a3.764 3.764 0 00-1.637-1.48c-.676-.347-1.429-.52-2.26-.52-1.196 0-2.218.38-3.066 1.143-.832.762-1.308 1.819-1.43 3.17h8.99zm11.981-6.34c1.732 0 3.135.529 4.209 1.585 1.074 1.04 1.611 2.546 1.611 4.52v8.393h-2.339v-8.054c0-1.42-.355-2.503-1.065-3.248-.71-.762-1.68-1.143-2.91-1.143-1.247 0-2.243.39-2.988 1.169-.727.78-1.091 1.914-1.091 3.404v7.872h-2.364V16.618h2.364v2.027a4.715 4.715 0 011.897-1.69c.814-.398 1.706-.597 2.676-.597zm12.046 2.209v8.392c0 .692.147 1.186.442 1.48.294.278.805.416 1.533.416h1.74v2h-2.13c-1.317 0-2.304-.302-2.962-.909-.658-.606-.987-1.602-.987-2.987v-8.392h-1.845v-1.949h1.845v-3.585h2.364v3.585h3.715v1.949h-3.715zm7.281-4.261c-.45 0-.831-.156-1.143-.468a1.557 1.557 0 01-.467-1.143c0-.45.156-.832.467-1.143a1.555 1.555 0 011.143-.468c.434 0 .797.156 1.092.468.311.311.467.693.467 1.143 0 .45-.156.831-.467 1.143a1.442 1.442 0 01-1.092.468zm1.144 2.312v14.238h-2.365V16.618h2.365zm9.719 14.472c-1.334 0-2.546-.303-3.637-.91a6.605 6.605 0 01-2.546-2.572c-.607-1.126-.91-2.425-.91-3.897 0-1.455.312-2.737.936-3.845.64-1.126 1.506-1.983 2.598-2.572 1.091-.607 2.312-.91 3.663-.91s2.572.303 3.663.91a6.384 6.384 0 012.573 2.546c.64 1.108.961 2.399.961 3.871s-.329 2.771-.987 3.897a6.692 6.692 0 01-2.624 2.572c-1.109.607-2.339.91-3.69.91zm0-2.079c.849 0 1.646-.199 2.39-.597.745-.399 1.343-.996 1.793-1.793.468-.797.702-1.767.702-2.91 0-1.143-.226-2.113-.676-2.91-.45-.797-1.039-1.386-1.767-1.767a4.84 4.84 0 00-2.364-.597c-.866 0-1.663.199-2.39.597-.71.381-1.282.97-1.715 1.767-.433.797-.649 1.767-.649 2.91 0 1.16.207 2.14.623 2.936.433.797 1.005 1.394 1.715 1.793.71.38 1.489.571 2.338.571zm16.827-12.653c1.732 0 3.135.529 4.209 1.585 1.074 1.04 1.611 2.546 1.611 4.52v8.393h-2.339v-8.054c0-1.42-.355-2.503-1.065-3.248-.71-.762-1.68-1.143-2.91-1.143-1.247 0-2.243.39-2.988 1.169-.727.78-1.091 1.914-1.091 3.404v7.872h-2.364V16.618h2.364v2.027a4.715 4.715 0 011.897-1.69c.814-.398 1.706-.597 2.676-.597z" fill="#fff"/><g clip-path="url(#clip0_12_1660)"><path fill-rule="evenodd" clip-rule="evenodd" d="M42.684 21.027c-.77.21-1.563.316-2.36.315h-9.542c-4.933 0-8.933 4-8.933 8.932v10.557c0 .635-.066 1.255-.192 1.853a8.935 8.935 0 01-.315-2.36v-9.542c0-4.933-4-8.933-8.933-8.933H1.852A8.988 8.988 0 010 21.657a8.937 8.937 0 012.36-.315h9.542c4.933 0 8.932-4 8.932-8.932V1.852c0-.636.067-1.255.193-1.853.21.77.316 1.563.315 2.36v9.542c0 4.933 4 8.932 8.933 8.932H40.83c.635 0 1.255.067 1.853.193z" fill="#fff"/></g><defs><clipPath id="clip0_12_1660"><path fill="#fff" d="M0 0h42.684v42.684H0z"/></clipPath></defs></svg>