<svg width="89" height="89" fill="none" xmlns="http://www.w3.org/2000/svg"><path opacity=".33" fill-rule="evenodd" clip-rule="evenodd" d="M88.932 16.729a21.937 21.937 0 01-4.547 3.669l-20.004 12.16c-10.344 6.287-13.632 19.769-7.345 30.111L70.49 84.803a22.041 22.041 0 011.958 4.13 21.934 21.934 0 01-3.669-4.547L56.62 64.38c-6.287-10.344-19.769-13.632-30.112-7.345L4.374 70.49a22.034 22.034 0 01-4.13 1.958 21.933 21.933 0 014.548-3.669l20.004-12.16c10.343-6.287 13.632-19.769 7.345-30.111L18.686 4.373a22.003 22.003 0 01-1.958-4.13 21.941 21.941 0 013.67 4.548l12.16 20.004C38.844 35.14 52.325 38.428 62.67 32.14l22.133-13.453a22.004 22.004 0 014.13-1.958z" fill="#486BED"/></svg>