<svg width="34" height="34" fill="none" xmlns="http://www.w3.org/2000/svg"><path fill-rule="evenodd" clip-rule="evenodd" d="M33.65 6.422a8.2 8.2 0 01-1.702 1.37l-7.486 4.533A8.193 8.193 0 0021.7 23.578l5.017 8.282c.302.498.544 1.016.73 1.545a8.204 8.204 0 01-1.37-1.702l-4.534-7.485a8.193 8.193 0 00-11.252-2.764l-8.283 5.017a8.236 8.236 0 01-1.544.73 8.2 8.2 0 011.702-1.37l7.485-4.533a8.193 8.193 0 002.763-11.253L7.397 1.763a8.225 8.225 0 01-.73-1.545c.53.504.99 1.076 1.37 1.702l4.533 7.485a8.193 8.193 0 0011.253 2.763l8.282-5.016a8.222 8.222 0 011.545-.73z" fill="#fff"/></svg>