<svg width="97" height="97" fill="none" xmlns="http://www.w3.org/2000/svg"><path opacity=".33" fill-rule="evenodd" clip-rule="evenodd" d="M96.372 70.019a21.938 21.938 0 01-5.575-1.747L69.58 58.378c-10.97-5.116-24.01-.37-29.126 10.6L29.506 92.451a22.035 22.035 0 01-2.348 3.92 21.935 21.935 0 011.746-5.575L38.8 69.58c5.116-10.97.37-24.01-10.6-29.126L4.724 29.507a22.035 22.035 0 01-3.92-2.349c1.929.331 3.804.919 5.576 1.747l21.216 9.894c10.97 5.116 24.01.37 29.126-10.6L67.67 4.726a21.997 21.997 0 012.349-3.92 21.942 21.942 0 01-1.747 5.575l-9.895 21.217c-5.115 10.97-.37 24.01 10.6 29.126L92.451 67.67a21.999 21.999 0 013.92 2.349z" fill="#486BED"/></svg>