<svg width="40" height="40" fill="none" xmlns="http://www.w3.org/2000/svg"><path fill-rule="evenodd" clip-rule="evenodd" d="M40 19.705a8.38 8.38 0 01-2.212.295h-8.941a8.37 8.37 0 00-8.371 8.37v9.894c0 .595-.063 1.176-.18 1.736A8.376 8.376 0 0120 37.788v-8.941a8.37 8.37 0 00-8.37-8.371H1.735c-.583 0-1.165-.06-1.736-.18A8.377 8.377 0 012.212 20h8.941a8.37 8.37 0 008.371-8.37V1.735c0-.595.062-1.176.18-1.736.197.72.297 1.465.296 2.212v8.941a8.371 8.371 0 008.371 8.371h9.893c.595 0 1.176.063 1.736.18z" fill="#222"/></svg>