<svg width="47" height="47" fill="none" xmlns="http://www.w3.org/2000/svg"><path fill-rule="evenodd" clip-rule="evenodd" d="M46.263 29.323a9.959 9.959 0 01-2.626-.368L33.402 26.1c-5.291-1.476-10.777 1.617-12.253 6.909L17.99 44.334c-.19.68-.447 1.326-.76 1.93a9.955 9.955 0 01.367-2.627l2.855-10.234c1.475-5.292-1.618-10.778-6.91-12.254L2.22 17.991a9.997 9.997 0 01-1.93-.76 9.956 9.956 0 012.627.368l10.235 2.854c5.291 1.476 10.777-1.618 12.253-6.91L28.562 2.22c.19-.682.447-1.327.76-1.93a9.954 9.954 0 01-.367 2.626L26.1 13.151c-1.475 5.292 1.618 10.778 6.91 12.253l11.323 3.158c.682.19 1.327.447 1.93.76z" fill="#fff"/></svg>